<?xml version="1.0" encoding="UTF-8" standalone="no"?>
<!-- Created with Inkscape (http://www.inkscape.org/) -->

<svg
   xmlns:osb="http://www.openswatchbook.org/uri/2009/osb"
   xmlns:dc="http://purl.org/dc/elements/1.1/"
   xmlns:cc="http://creativecommons.org/ns#"
   xmlns:rdf="http://www.w3.org/1999/02/22-rdf-syntax-ns#"
   xmlns:svg="http://www.w3.org/2000/svg"
   xmlns="http://www.w3.org/2000/svg"
   xmlns:xlink="http://www.w3.org/1999/xlink"
   xmlns:sodipodi="http://sodipodi.sourceforge.net/DTD/sodipodi-0.dtd"
   xmlns:inkscape="http://www.inkscape.org/namespaces/inkscape"
   width="744.09448819"
   height="1052.3622047"
   id="svg2"
   version="1.1"
   inkscape:version="0.48.4 r9939"
   sodipodi:docname="templateStructure.svg">
  <defs
     id="defs4">
    <linearGradient
       id="linearGradient4035"
       osb:paint="solid">
      <stop
         style="stop-color:#000000;stop-opacity:1;"
         offset="0"
         id="stop4037" />
    </linearGradient>
    <linearGradient
       x1="-987.59"
       y1="74.616"
       gradientTransform="matrix(0.64459,0,0,-0.62978,1002.1,304.33)"
       x2="-987.59"
       gradientUnits="userSpaceOnUse"
       xlink:href="#linearGradient4568"
       y2="-236.13"
       id="linearGradient3813" />
    <linearGradient
       x1="365.01"
       y1="664.38"
       gradientTransform="matrix(-1,0,0,1,735.81,-20)"
       x2="365.01"
       gradientUnits="userSpaceOnUse"
       xlink:href="#linearGradient4568"
       y2="277.43"
       id="linearGradient3809" />
    <linearGradient
       x1="182.3"
       y1="129.77"
       gradientTransform="matrix(1.3339,0,0,1.3339,125.21,189.44)"
       x2="182.3"
       gradientUnits="userSpaceOnUse"
       xlink:href="#linearGradient4568"
       y2="263.97"
       id="linearGradient3806" />
    <linearGradient
       id="linearGradient4568">
      <stop
         offset="0"
         stop-color="#9394b8"
         id="stop4570" />
      <stop
         offset="1"
         stop-color="#fff"
         id="stop4807" />
    </linearGradient>
    <linearGradient
       y2="177.41"
       x2="310.68"
       gradientTransform="matrix(0.5298,0,0,0.5298,-129.02,-340.03)"
       y1="161.52"
       gradientUnits="userSpaceOnUse"
       xlink:href="#linearGradient3928-8-4"
       x1="326.01"
       id="linearGradient3430" />
    <filter
       color-interpolation-filters="sRGB"
       x="-.041613"
       y="-.1075"
       width="1.0832"
       height="1.215"
       id="filter4396-9">
      <feGaussianBlur
         stdDeviation="0.53749999"
         id="feGaussianBlur4398-8" />
    </filter>
    <linearGradient
       id="linearGradient3928-8-4">
      <stop
         offset="0"
         stop-color="#7c7c7c"
         id="stop3930-2-0" />
      <stop
         offset="1"
         stop-color="#e6e3e3"
         id="stop3932-0-7" />
    </linearGradient>
    <linearGradient
       y2="150.17"
       x2="299.9"
       gradientTransform="matrix(0.53078,0,0,0.52644,-129.36,-339.55)"
       y1="238.13"
       gradientUnits="userSpaceOnUse"
       xlink:href="#linearGradient3928-8-4"
       x1="298.48"
       id="linearGradient3428" />
    <filter
       color-interpolation-filters="sRGB"
       id="filter4402-9">
      <feGaussianBlur
         stdDeviation="1.2625"
         id="feGaussianBlur4404-4" />
    </filter>
    <linearGradient
       inkscape:collect="always"
       xlink:href="#linearGradient3928-8-4"
       id="linearGradient4009"
       gradientUnits="userSpaceOnUse"
       gradientTransform="matrix(0.53078,0,0,0.52644,-129.36,-339.55)"
       x1="298.48"
       y1="238.13"
       x2="299.9"
       y2="150.17" />
    <linearGradient
       inkscape:collect="always"
       xlink:href="#linearGradient3928-8-4"
       id="linearGradient4011"
       gradientUnits="userSpaceOnUse"
       gradientTransform="matrix(0.5298,0,0,0.5298,-129.02,-340.03)"
       x1="326.01"
       y1="161.52"
       x2="310.68"
       y2="177.41" />
  </defs>
  <sodipodi:namedview
     id="base"
     pagecolor="#ffffff"
     bordercolor="#666666"
     borderopacity="1.0"
     inkscape:pageopacity="0.0"
     inkscape:pageshadow="2"
     inkscape:zoom="8.9787357"
     inkscape:cx="384.21208"
     inkscape:cy="545.42836"
     inkscape:document-units="px"
     inkscape:current-layer="layer1"
     showgrid="false"
     inkscape:window-width="1615"
     inkscape:window-height="1026"
     inkscape:window-x="65"
     inkscape:window-y="24"
     inkscape:window-maximized="1"
     showguides="true"
     inkscape:guide-bbox="true" />
  <metadata
     id="metadata7">
    <rdf:RDF>
      <cc:Work
         rdf:about="">
        <dc:format>image/svg+xml</dc:format>
        <dc:type
           rdf:resource="http://purl.org/dc/dcmitype/StillImage" />
        <dc:title />
      </cc:Work>
    </rdf:RDF>
  </metadata>
  <g
     inkscape:label="Layer 1"
     inkscape:groupmode="layer"
     id="layer1">
    <text
       xml:space="preserve"
       style="font-size:12px;font-style:normal;font-weight:normal;text-align:center;line-height:125%;letter-spacing:0px;word-spacing:0px;text-anchor:middle;fill:#000000;fill-opacity:1;stroke:none;font-family:Sans"
       x="117.29371"
       y="55.866089"
       id="text2985"
       sodipodi:linespacing="125%"><tspan
         sodipodi:role="line"
         id="tspan2987"
         x="117.29371"
         y="55.866089">fmuTemplate.c</tspan></text>
    <text
       xml:space="preserve"
       style="font-size:12px;font-style:normal;font-weight:normal;text-align:start;line-height:125%;letter-spacing:0px;word-spacing:0px;text-anchor:start;fill:#000000;fill-opacity:1;stroke:none;font-family:Sans"
       x="70.981209"
       y="92.192261"
       id="text2989"
       sodipodi:linespacing="125%"><tspan
         sodipodi:role="line"
         id="tspan2991"
         x="70.981209"
         y="92.192261">&lt;fmuOthers.c&gt;</tspan><tspan
         sodipodi:role="line"
         x="70.981209"
         y="107.19226"
         id="tspan3082">&lt;variableDeclarations&gt;</tspan><tspan
         sodipodi:role="line"
         x="70.981209"
         y="122.19226"
         id="tspan3084">&lt;fmuInstantiate.c&gt;</tspan><tspan
         sodipodi:role="line"
         x="70.981209"
         y="137.19226"
         id="tspan3088">&lt;fmiInitializeSlave&gt;</tspan><tspan
         sodipodi:role="line"
         x="70.981209"
         y="152.19226"
         id="tspan3090">&lt;subroutineList&gt;</tspan></text>
    <text
       xml:space="preserve"
       style="font-size:12px;font-style:normal;font-weight:normal;text-align:center;line-height:125%;letter-spacing:0px;word-spacing:0px;text-anchor:middle;fill:#000000;fill-opacity:1;stroke:none;font-family:Sans"
       x="141.27274"
       y="178.38676"
       id="text2993"
       sodipodi:linespacing="125%"><tspan
         sodipodi:role="line"
         id="tspan2995"
         x="141.27274"
         y="178.38676" /></text>
    <text
       xml:space="preserve"
       style="font-size:12px;font-style:normal;font-weight:normal;text-align:center;line-height:125%;letter-spacing:0px;word-spacing:0px;text-anchor:middle;fill:#000000;fill-opacity:1;stroke:none;font-family:Sans"
       x="153.24501"
       y="137.68106"
       id="text2997"
       sodipodi:linespacing="125%"><tspan
         sodipodi:role="line"
         id="tspan2999"
         x="153.24501"
         y="137.68106" /></text>
    <text
       xml:space="preserve"
       style="font-size:12px;font-style:normal;font-weight:normal;text-align:center;line-height:125%;letter-spacing:0px;word-spacing:0px;text-anchor:middle;fill:#000000;fill-opacity:1;stroke:none;font-family:Sans"
       x="140.07552"
       y="270.57321"
       id="text3001"
       sodipodi:linespacing="125%"><tspan
         sodipodi:role="line"
         id="tspan3003"
         x="140.07552"
         y="270.57321" /></text>
    <text
       xml:space="preserve"
       style="font-size:12px;font-style:normal;font-weight:normal;text-align:center;line-height:125%;letter-spacing:0px;word-spacing:0px;text-anchor:middle;fill:#000000;fill-opacity:1;stroke:none;font-family:Sans"
       x="147.25887"
       y="225.0786"
       id="text3005"
       sodipodi:linespacing="125%"><tspan
         sodipodi:role="line"
         id="tspan3007"
         x="147.25887"
         y="225.0786" /></text>
    <text
       xml:space="preserve"
       style="font-size:12px;font-style:normal;font-weight:normal;text-align:center;line-height:125%;letter-spacing:0px;word-spacing:0px;text-anchor:middle;fill:#000000;fill-opacity:1;stroke:none;font-family:Sans"
       x="440.55167"
       y="73.353226"
       id="text3009"
       sodipodi:linespacing="125%"><tspan
         sodipodi:role="line"
         id="tspan3011"
         x="440.55167"
         y="73.353226">fmuOthers.c</tspan></text>
    <text
       xml:space="preserve"
       style="font-size:12px;font-style:normal;font-weight:normal;text-align:center;line-height:125%;letter-spacing:0px;word-spacing:0px;text-anchor:middle;fill:#000000;fill-opacity:1;stroke:none;font-family:Sans"
       x="457.38217"
       y="153.77548"
       id="text3013"
       sodipodi:linespacing="125%"><tspan
         sodipodi:role="line"
         id="tspan3015"
         x="457.38217"
         y="153.77548">fmuInstantiate.c</tspan></text>
    <text
       xml:space="preserve"
       style="font-size:12px;font-style:normal;font-weight:normal;text-align:center;line-height:125%;letter-spacing:0px;word-spacing:0px;text-anchor:middle;fill:#000000;fill-opacity:1;stroke:none;font-family:Sans"
       x="461.4931"
       y="243.90009"
       id="text3017"
       sodipodi:linespacing="125%"><tspan
         sodipodi:role="line"
         id="tspan3019"
         x="461.4931"
         y="243.90009">fmuInitializeSlave.c</tspan></text>
    <text
       xml:space="preserve"
       style="font-size:12px;font-style:normal;font-weight:normal;text-align:start;line-height:125%;letter-spacing:0px;word-spacing:0px;text-anchor:start;fill:#000000;fill-opacity:1;stroke:none;font-family:Sans"
       x="407.32809"
       y="88.917206"
       id="text3021"
       sodipodi:linespacing="125%"><tspan
         sodipodi:role="line"
         id="tspan3023"
         x="407.32809"
         y="88.917206">&quot;Main BoilerPlate&quot;</tspan><tspan
         sodipodi:role="line"
         x="407.32809"
         y="103.91721"
         id="tspan3033">30 functions</tspan></text>
    <text
       xml:space="preserve"
       style="font-size:12px;font-style:normal;font-weight:normal;text-align:start;line-height:125%;letter-spacing:0px;word-spacing:0px;text-anchor:start;fill:#000000;fill-opacity:1;stroke:none;font-family:Sans"
       x="413.68591"
       y="171.83713"
       id="text3025"
       sodipodi:linespacing="125%"><tspan
         sodipodi:role="line"
         id="tspan3027"
         x="413.68591"
         y="171.83713">&lt;AddToHeader&gt;</tspan><tspan
         sodipodi:role="line"
         x="413.68591"
         y="186.83713"
         id="tspan3059">fmiComponent fmiInstantiateSlave(...){...}</tspan></text>
    <text
       xml:space="preserve"
       style="font-size:12px;font-style:normal;font-weight:normal;text-align:center;line-height:125%;letter-spacing:0px;word-spacing:0px;text-anchor:middle;fill:#000000;fill-opacity:1;stroke:none;font-family:Sans"
       x="479.88757"
       y="177.61789"
       id="text3029"
       sodipodi:linespacing="125%"><tspan
         sodipodi:role="line"
         id="tspan3031"
         x="479.88757"
         y="177.61789" /></text>
    <text
       xml:space="preserve"
       style="font-size:12px;font-style:normal;font-weight:normal;text-align:center;line-height:125%;letter-spacing:0px;word-spacing:0px;text-anchor:middle;fill:#000000;fill-opacity:1;stroke:none;font-family:Sans"
       x="355.57629"
       y="494.45459"
       id="text3035"
       sodipodi:linespacing="125%"><tspan
         sodipodi:role="line"
         id="tspan3037"
         x="355.57629"
         y="494.45459" /></text>
    <text
       xml:space="preserve"
       style="font-size:12px;font-style:normal;font-weight:normal;text-align:center;line-height:125%;letter-spacing:0px;word-spacing:0px;text-anchor:middle;fill:#000000;fill-opacity:1;stroke:none;font-family:Sans"
       x="375.9292"
       y="544.73816"
       id="text3039"
       sodipodi:linespacing="125%"><tspan
         sodipodi:role="line"
         id="tspan3041"
         x="375.9292"
         y="544.73816" /></text>
    <text
       xml:space="preserve"
       style="font-size:12px;font-style:normal;font-weight:normal;text-align:center;line-height:125%;letter-spacing:0px;word-spacing:0px;text-anchor:middle;fill:#000000;fill-opacity:1;stroke:none;font-family:Sans"
       x="425.01547"
       y="561.49927"
       id="text3043"
       sodipodi:linespacing="125%"><tspan
         sodipodi:role="line"
         id="tspan3045"
         x="425.01547"
         y="561.49927" /></text>
    <text
       xml:space="preserve"
       style="font-size:12px;font-style:normal;font-weight:normal;text-align:start;line-height:125%;letter-spacing:0px;word-spacing:0px;text-anchor:start;fill:#000000;fill-opacity:1;stroke:none;font-family:Sans"
       x="402.46176"
       y="263.53955"
       id="text3047"
       sodipodi:linespacing="125%"><tspan
         sodipodi:role="line"
         id="tspan3049"
         x="402.46176"
         y="263.53955">&lt;AddToHeader&gt;</tspan><tspan
         sodipodi:role="line"
         x="402.46176"
         y="278.53955"
         id="tspan3057">fmiStatusInitializeSlave(...){ ...</tspan><tspan
         sodipodi:role="line"
         x="402.46176"
         y="293.53955"
         id="tspan3051">  &lt;initialisationList&gt;</tspan><tspan
         sodipodi:role="line"
         x="402.46176"
         y="308.53955"
         id="tspan3053">  &lt;stateMachineProgramCounterIni&gt;</tspan><tspan
         sodipodi:role="line"
         x="402.46176"
         y="323.53955"
         id="tspan3055">}</tspan></text>
    <text
       xml:space="preserve"
       style="font-size:12px;font-style:normal;font-weight:normal;text-align:start;line-height:125%;letter-spacing:0px;word-spacing:0px;text-anchor:start;fill:#000000;fill-opacity:1;stroke:none;font-family:Sans"
       x="70.90625"
       y="239.86609"
       id="text3092"
       sodipodi:linespacing="125%"><tspan
         sodipodi:role="line"
         id="tspan3094"
         x="70.90625"
         y="239.86609">AddFunctionToHeader.java</tspan><tspan
         sodipodi:role="line"
         x="70.90625"
         y="254.86609"
         id="tspan3106" /><tspan
         sodipodi:role="line"
         x="70.90625"
         y="269.86609"
         id="tspan3098">InitialisationsListGenerator.java</tspan><tspan
         sodipodi:role="line"
         x="70.90625"
         y="284.86609"
         id="tspan3108" /><tspan
         sodipodi:role="line"
         x="70.90625"
         y="299.86609"
         id="tspan3100">StateMachinePCGenerator.java</tspan><tspan
         sodipodi:role="line"
         x="70.90625"
         y="314.86609"
         id="tspan3110" /><tspan
         sodipodi:role="line"
         x="70.90625"
         y="329.86609"
         id="tspan3102">SubroutineListGenerator.java</tspan><tspan
         sodipodi:role="line"
         x="70.90625"
         y="344.86609"
         id="tspan3112" /><tspan
         sodipodi:role="line"
         x="70.90625"
         y="359.86609"
         id="tspan3104">VariableDeclarationsGenerator.java</tspan><tspan
         sodipodi:role="line"
         x="70.90625"
         y="374.86609"
         id="tspan3096" /></text>
    <text
       xml:space="preserve"
       style="font-size:12px;font-style:normal;font-weight:normal;text-align:center;line-height:125%;letter-spacing:0px;word-spacing:0px;text-anchor:middle;fill:#000000;fill-opacity:1;stroke:none;font-family:Sans"
       x="134.18645"
       y="208.31743"
       id="text3114"
       sodipodi:linespacing="125%"><tspan
         sodipodi:role="line"
         id="tspan3116"
         x="134.18645"
         y="208.31743">Generators</tspan></text>
    <rect
       style="fill:none;stroke:#000000;stroke-width:1.97716808;stroke-miterlimit:4;stroke-opacity:1;stroke-dasharray:none;stroke-dashoffset:0"
       id="rect3118"
       width="188.02284"
       height="138.02283"
       x="56.988583"
       y="31.994762" />
    <rect
       style="fill:none;stroke:#000000;stroke-width:1.99719739;stroke-miterlimit:4;stroke-opacity:1;stroke-dasharray:none;stroke-dashoffset:0"
       id="rect3120"
       width="256.00281"
       height="184.00281"
       x="56.998596"
       y="185.36078" />
    <rect
       style="fill:none;stroke:#000000;stroke-width:1.99906242;stroke-miterlimit:4;stroke-opacity:1;stroke-dasharray:none;stroke-dashoffset:0"
       id="rect3122"
       width="148.45703"
       height="61.000931"
       x="391.49265"
       y="58.872025" />
    <rect
       style="fill:none;stroke:#000000;stroke-width:2.00227833;stroke-miterlimit:4;stroke-opacity:1;stroke-dasharray:none;stroke-dashoffset:0"
       id="rect3124"
       width="304.09326"
       height="77.997719"
       x="390.297"
       y="132.86288" />
    <rect
       style="fill:none;stroke:#000000;stroke-width:2.00056958;stroke-miterlimit:4;stroke-opacity:1;stroke-dasharray:none;stroke-dashoffset:0"
       id="rect3126"
       width="306.48944"
       height="114.99942"
       x="389.09891"
       y="225.16248" />
    <g
       transform="matrix(0.06458947,0,0,0.0647671,52.736888,174.56205)"
       id="layer1-5">
      <g
         id="g2290">
        <path
           style="color:#000000;fill:url(#linearGradient3813)"
           d="m 237.19,307.47 16.44,45.18 c -0.04,0.04 -0.06,0.09 -0.1,0.13 l 0.13,0.37 c -6.92,7.54 -13.13,15.85 -18.5,24.91 l -49.5,-1.34 c -0.98,2.22 -1.99,4.44 -2.88,6.68 -1.21,3.06 -2.33,6.11 -3.37,9.19 -1.05,3.08 -2.03,6.21 -2.91,9.31 -0.78,2.79 -1.47,5.55 -2.12,8.35 l 40.5,27.09 c -0.05,0.44 -0.02,0.9 -0.07,1.34 l 0.28,0.19 c -0.46,4.73 -0.62,9.45 -0.62,14.16 h 88.94 c 0.01,-2.84 0.25,-5.68 0.65,-8.47 0.41,-2.79 1,-5.55 1.78,-8.25 0.78,-2.71 1.74,-5.36 2.88,-7.94 1.14,-2.58 2.48,-5.08 3.97,-7.5 1.49,-2.42 3.14,-4.75 4.97,-6.97 1.83,-2.21 3.84,-4.3 6,-6.28 2.15,-1.97 4.44,-3.83 6.9,-5.53 2.47,-1.69 5.11,-3.25 7.88,-4.62 1.97,-0.99 3.95,-1.83 5.97,-2.6 2.02,-0.76 4.07,-1.44 6.12,-2 2.06,-0.55 4.12,-0.99 6.19,-1.34 0.97,-0.16 1.96,-0.23 2.94,-0.35 0.33,-0.04 0.66,-0.08 1,-0.12 0.77,-0.08 1.54,-0.23 2.31,-0.28 0.75,-0.05 1.5,-0.01 2.25,-0.03 0.85,-0.04 1.71,-0.06 2.56,-0.07 0.47,0.01 0.94,-0.04 1.41,-0.03 0.34,0.01 0.69,0.05 1.03,0.07 1.72,0.05 3.44,0.21 5.16,0.4 7.37,0.84 14.74,2.86 21.75,6.35 22.11,11.01 34.82,32.86 34.96,55.56 h 89.04 c -0.01,-4.73 -0.22,-9.48 -0.69,-14.22 l 41,-27.44 c -0.01,-0.05 -0.05,-0.1 -0.06,-0.15 -0.72,-3.13 -1.5,-6.24 -2.38,-9.35 -0.88,-3.1 -1.83,-6.2 -2.87,-9.28 -1.05,-3.08 -2.17,-6.13 -3.38,-9.19 -0.88,-2.21 -1.84,-4.43 -2.81,-6.62 l -49.13,1.34 c -0.33,-0.55 -0.72,-1.07 -1.06,-1.62 h -0.31 c -2.41,-3.96 -4.97,-7.78 -7.69,-11.44 -2.72,-3.66 -5.59,-7.17 -8.59,-10.53 l 16.68,-45.81 c -1.45,-1.27 -2.89,-2.54 -4.37,-3.75 -2.47,-2.03 -4.98,-4.01 -7.53,-5.91 -2.56,-1.9 -5.18,-3.73 -7.81,-5.5 -2.64,-1.77 -5.32,-3.49 -8.04,-5.13 -0.77,-0.46 -1.55,-0.92 -2.34,-1.37 l -39,29.34 c -0.57,-0.25 -1.15,-0.41 -1.72,-0.65 l -0.09,0.06 c -4.31,-1.83 -8.7,-3.44 -13.16,-4.88 -4.45,-1.43 -8.96,-2.68 -13.53,-3.71 l -0.06,-0.16 c -0.02,-0.01 -0.04,-0.03 -0.06,-0.03 l -14.04,-46.56 c -1.97,-0.21 -3.92,-0.45 -5.9,-0.6 -3.19,-0.23 -6.4,-0.35 -9.6,-0.44 -2.14,-0.05 -4.28,-0.03 -6.43,-0.03 -1.08,0.01 -2.15,-0.02 -3.22,0 -3.2,0.09 -6.38,0.24 -9.56,0.47 -1.02,0.08 -2.03,0.22 -3.04,0.31 l -14,46.38 c -10.15,2.1 -20.07,5.18 -29.59,9.22 l -39.37,-29.6 c -1.32,0.76 -2.64,1.47 -3.94,2.25 -2.72,1.64 -5.39,3.36 -8.03,5.13 -2.64,1.77 -5.26,3.6 -7.82,5.5 -2.55,1.9 -5.06,3.88 -7.53,5.91 -0.98,0.8 -1.91,1.67 -2.87,2.5 z m 181.78,39.28 c 1.36,0.09 2.74,0.45 4.03,1.09 5.16,2.57 7.22,8.77 4.59,13.81 -2.62,5.04 -8.96,7.04 -14.12,4.47 -5.16,-2.57 -7.22,-8.74 -4.59,-13.78 1.97,-3.78 6.01,-5.88 10.09,-5.59 z m -148.88,47.28 c 1.36,0.09 2.75,0.45 4.04,1.09 5.16,2.57 7.22,8.74 4.59,13.78 -2.63,5.04 -8.97,7.04 -14.13,4.47 -5.16,-2.57 -7.22,-8.74 -4.59,-13.78 1.97,-3.78 6.02,-5.84 10.09,-5.56 z"
           id="path4850"
           inkscape:connector-curvature="0" />
        <path
           style="color:#000000;fill:url(#linearGradient3809)"
           d="m 498.63,597.32 -16.44,-45.19 c 0.03,-0.04 0.06,-0.08 0.09,-0.12 l -0.12,-0.38 c 6.91,-7.53 13.13,-15.84 18.5,-24.9 l 49.5,1.34 c 0.98,-2.22 1.98,-4.45 2.87,-6.69 1.21,-3.05 2.33,-6.1 3.38,-9.18 1.04,-3.09 2.03,-6.21 2.9,-9.32 0.79,-2.78 1.48,-5.55 2.13,-8.34 l -40.5,-27.09 c 0.05,-0.45 0.02,-0.9 0.06,-1.35 l -0.28,-0.19 c 0.47,-4.72 0.62,-9.44 0.62,-14.15 h -88.93 c -0.02,2.83 -0.25,5.68 -0.66,8.47 -0.4,2.79 -1,5.54 -1.78,8.25 -0.78,2.7 -1.73,5.35 -2.88,7.93 -1.14,2.58 -2.47,5.09 -3.96,7.5 -1.5,2.42 -3.14,4.76 -4.97,6.97 -1.83,2.22 -3.85,4.31 -6,6.28 -2.16,1.98 -4.44,3.84 -6.91,5.54 -2.46,1.69 -5.11,3.24 -7.87,4.62 -1.98,0.98 -3.95,1.83 -5.97,2.59 -2.02,0.77 -4.07,1.45 -6.13,2 -2.05,0.56 -4.11,1 -6.19,1.35 -0.97,0.16 -1.96,0.22 -2.93,0.34 -0.34,0.04 -0.67,0.09 -1,0.13 -0.77,0.08 -1.55,0.22 -2.32,0.28 -0.75,0.05 -1.49,0 -2.25,0.03 -0.85,0.04 -1.7,0.06 -2.56,0.06 -0.47,0 -0.94,0.04 -1.4,0.03 -0.35,-0.01 -0.69,-0.05 -1.04,-0.06 -1.71,-0.06 -3.43,-0.21 -5.15,-0.41 -7.38,-0.83 -14.75,-2.85 -21.75,-6.34 -22.12,-11.01 -34.83,-32.86 -34.97,-55.56 h -89.03 c 0,4.72 0.22,9.48 0.69,14.22 l -41,27.43 c 0.01,0.06 0.05,0.11 0.06,0.16 0.71,3.12 1.5,6.24 2.37,9.34 0.88,3.11 1.83,6.2 2.88,9.29 1.04,3.08 2.16,6.13 3.37,9.18 0.88,2.22 1.84,4.43 2.82,6.63 L 235,526.66 c 0.33,0.56 0.73,1.08 1.06,1.63 h 0.32 c 2.4,3.95 4.96,7.77 7.68,11.44 2.72,3.66 5.59,7.17 8.6,10.53 l -16.69,45.81 c 1.45,1.26 2.89,2.53 4.37,3.75 2.47,2.03 4.98,4.01 7.54,5.91 2.55,1.9 5.17,3.73 7.81,5.5 2.64,1.77 5.31,3.48 8.03,5.12 0.78,0.47 1.55,0.93 2.34,1.38 l 39,-29.35 c 0.57,0.25 1.15,0.42 1.72,0.66 l 0.1,-0.06 c 4.3,1.83 8.7,3.43 13.15,4.87 4.46,1.44 8.96,2.68 13.53,3.72 l 0.07,0.16 c 0.02,0 0.04,0.02 0.06,0.03 l 14.03,46.56 c 1.97,0.2 3.92,0.45 5.91,0.59 3.18,0.24 6.39,0.36 9.59,0.44 2.14,0.06 4.29,0.04 6.44,0.03 1.07,-0.01 2.14,0.03 3.22,0 3.2,-0.08 6.37,-0.23 9.56,-0.47 1.01,-0.07 2.02,-0.22 3.03,-0.31 l 14,-46.37 c 10.16,-2.1 20.07,-5.18 29.59,-9.22 l 39.38,29.59 c 1.31,-0.75 2.64,-1.46 3.94,-2.25 2.71,-1.64 5.39,-3.35 8.03,-5.12 2.64,-1.77 5.25,-3.6 7.81,-5.5 2.56,-1.9 5.06,-3.88 7.53,-5.91 0.98,-0.81 1.91,-1.67 2.88,-2.5 z M 316.84,558.04 c -1.36,-0.1 -2.74,-0.45 -4.03,-1.09 -5.16,-2.57 -7.22,-8.78 -4.59,-13.82 2.63,-5.04 8.96,-7.03 14.12,-4.47 5.16,2.57 7.23,8.74 4.6,13.79 -1.97,3.78 -6.02,5.87 -10.1,5.59 z m 148.88,-47.28 c -1.36,-0.1 -2.74,-0.45 -4.03,-1.1 -5.16,-2.57 -7.22,-8.74 -4.6,-13.78 2.63,-5.04 8.97,-7.03 14.13,-4.47 5.16,2.57 7.22,8.74 4.59,13.79 -1.97,3.78 -6.01,5.84 -10.09,5.56 z"
           id="path3767"
           inkscape:connector-curvature="0" />
      </g>
      <path
         style="color:#000000;fill:#ffffff"
         d="m 368.11,358.09 c -51.39,0 -93.33,41.9 -93.33,93.29 0,51.39 41.94,93.33 93.33,93.33 51.39,0 93.29,-41.94 93.29,-93.33 0,-51.39 -41.9,-93.29 -93.29,-93.29 z m 0,21.3 c 39.86,0 71.99,32.13 71.99,71.99 0,39.86 -32.13,72.03 -71.99,72.03 -39.86,0 -72.03,-32.17 -72.03,-72.03 0,-39.86 32.17,-71.99 72.03,-71.99 z"
         id="path2327"
         inkscape:connector-curvature="0" />
      <path
         style="color:#000000;fill:url(#linearGradient3806)"
         d="m 368.11,361.22 c -49.69,0 -90.16,40.48 -90.16,90.16 0,49.69 40.47,90.16 90.16,90.16 49.68,0 90.12,-40.47 90.12,-90.16 0,-49.68 -40.44,-90.16 -90.12,-90.16 z m 0,15.01 c 41.57,0 75.15,33.58 75.15,75.15 0,41.57 -33.58,75.16 -75.15,75.16 -41.57,0 -75.16,-33.59 -75.16,-75.16 0,-41.57 33.59,-75.15 75.16,-75.15 z"
         id="path3500"
         inkscape:connector-curvature="0" />
    </g>
    <path
       style="fill:#b827b8;fill-opacity:1;stroke:#b827b8;stroke-width:0.05291044;stroke-miterlimit:4;stroke-opacity:1;stroke-dasharray:none;stroke-dashoffset:0"
       d=""
       id="path3921"
       inkscape:connector-curvature="0" />
    <path
       style="fill:#b827b8;fill-opacity:1;stroke:#b827b8;stroke-width:0.05291044;stroke-miterlimit:4;stroke-opacity:1;stroke-dasharray:none;stroke-dashoffset:0"
       d=""
       id="path3923"
       inkscape:connector-curvature="0" />
    <path
       style="fill:#b827b8;fill-opacity:1;stroke:#b827b8;stroke-width:0.05291044;stroke-miterlimit:4;stroke-opacity:1;stroke-dasharray:none;stroke-dashoffset:0"
       d=""
       id="path3925"
       inkscape:connector-curvature="0" />
    <path
       style="fill:#b827b8;fill-opacity:1;stroke:#b827b8;stroke-width:0.05291044;stroke-miterlimit:4;stroke-opacity:1;stroke-dasharray:none;stroke-dashoffset:0"
       d=""
       id="path3927"
       inkscape:connector-curvature="0" />
    <g
       id="g3995"
       transform="matrix(1.12,0,0,1,-14.538112,0)">
      <g
         id="layer1-50"
         transform="matrix(1.12,0,0,1,-420.04349,220.37381)">
        <g
           id="g3408"
           transform="translate(453.75,497.07)">
          <path
             inkscape:connector-curvature="0"
             id="path3410"
             style="opacity:0.6;color:#000000;stroke:#000000;stroke-width:2;stroke-linecap:round;stroke-linejoin:round;stroke-dashoffset:117.54;filter:url(#filter4402-9)"
             d="m 13.617,-255.14 v 56 h 45 v -40.108 L 42.594,-255.14 z" />
          <path
             inkscape:connector-curvature="0"
             id="path3412"
             style="color:#000000;fill:url(#linearGradient4009);stroke:#000000;stroke-width:2;stroke-linecap:round;stroke-linejoin:round;stroke-dashoffset:117.54"
             d="m 6.6167,-262.14 v 56 h 45 v -40.108 l -16.023,-15.892 z" />
          <rect
             id="rect3414"
             style="color:#000000;filter:url(#filter4396-9)"
             rx="1"
             ry="1"
             height="12"
             width="31"
             y="-251.14"
             x="-2.3833001" />
          <rect
             id="rect3416"
             style="color:#000000;fill:#b827b8"
             rx="1"
             ry="1"
             height="12"
             width="31"
             y="-251.14"
             x="-2.3833001" />
          <path
             inkscape:connector-curvature="0"
             id="path3418"
             style="color:#000000;fill:url(#linearGradient4011);stroke:#000000;stroke-width:2;stroke-linecap:round;stroke-linejoin:round;stroke-dashoffset:117.54"
             d="m 51.617,-246.14 -15.989,-15.989 v 15.989 h 15.989 z" />
          <text
             sodipodi:linespacing="125%"
             id="text3420"
             style="font-size:10.20800018px;font-weight:bold;text-align:center;line-height:125%;letter-spacing:0px;word-spacing:0px;text-anchor:middle;fill:#ffffff;font-family:Sans"
             xml:space="preserve"
             transform="scale(0.89596,1.1161)"
             font-size="10.208px"
             y="-215.91681"
             x="14.308331"
             font-weight="bold"
             line-height="125%"><tspan
               id="tspan3422"
               y="-215.91681"
               x="14.308331">XML</tspan></text>
          <text
             sodipodi:linespacing="125%"
             id="text3424"
             style="font-size:20.93400002px;font-weight:bold;text-align:center;line-height:125%;letter-spacing:0px;word-spacing:0px;text-anchor:middle;fill:#b827b8;font-family:DejaVu Sans"
             xml:space="preserve"
             font-size="20.934px"
             line-height="125%"
             y="-217.14209"
             x="29.116678"
             font-weight="bold"><tspan
               style="font-weight:bold;fill:#b827b8;font-family:DejaVu Sans"
               id="tspan3426"
               y="-217.14209"
               x="29.116678"
               font-weight="bold">&lt;/&gt;</tspan></text>
        </g>
      </g>
      <path
         inkscape:connector-curvature="0"
         d="m 97.860468,476.79511 c -0.08534,-0.0567 -0.163834,-0.12109 -0.247598,-0.17951 -0.05835,-0.0428 -0.110656,-0.0915 -0.158473,-0.14355 -0.03718,-0.0368 -0.07392,-0.0747 -0.106736,-0.11474 -0.0121,-0.0189 -0.02856,-0.0626 5.83e-4,-0.0786 0.374755,-0.20465 0.247814,-0.18057 0.421605,-0.20998 0.05085,-0.0103 0.09957,-0.0243 0.152085,-0.0297 0.05746,-0.005 0.115214,-0.005 0.17286,-0.005 0.03136,0.003 0.06026,0.01 0.08949,0.0202 0,0 -0.363955,0.22071 -0.363955,0.22071 l 0,0 c -0.02666,-0.006 -0.05331,-0.0107 -0.08098,-0.01 -0.05656,6.9e-4 -0.113445,10e-4 -0.169433,0.01 -0.05018,0.009 -0.09867,0.0232 -0.148057,0.0349 -0.148243,0.0643 0.01658,-0.007 0.335601,-0.17865 0.01165,-0.006 -0.07504,0.0205 -0.03091,0.0263 0.03158,0.0399 0.06989,0.0754 0.104832,0.1129 0.04558,0.05 0.09531,0.0968 0.150964,0.13805 0.08176,0.0601 0.160216,0.12409 0.248898,0.17619 0,0 -0.370866,0.21052 -0.370866,0.21052 z m -7.13911,-8.67052 c 0.09135,-0.003 0.181268,0.005 0.271729,0.0145 0.0586,0.007 0.117652,0.009 0.176654,0.0116 0.460665,0.22312 -0.375006,0.23182 -0.471263,0.23144 -0.0589,-0.0116 -0.1184,-0.0192 -0.178484,-0.0234 -0.05613,-0.003 -0.11389,0.002 -0.163266,-0.0256 -0.0045,-0.005 -0.01008,-0.009 -0.01338,-0.0145 -0.002,-0.003 -0.01678,-0.0368 -0.0064,-0.0426 0.319938,-0.17834 0.255619,-0.19348 0.441453,-0.20264 0.05616,-0.0153 0.114567,-0.0212 0.172888,-0.0251 0.06009,-0.003 0.120317,-0.003 0.180493,-0.003 0.05934,2e-5 0.118687,1.4e-4 0.178031,2e-4 0.05925,5e-5 0.118502,6e-5 0.177753,6e-5 0.05926,0 0.118515,0 0.177774,0 0.05917,0.011 0.118735,0.019 0.178974,0.0232 0.05881,0.003 0.117762,0.003 0.17666,0.003 0.05923,3e-5 0.118459,-9e-5 0.177689,-1.4e-4 0.06308,-1.5e-4 0.126144,-5e-5 0.189215,3e-4 0.07285,-1.1e-4 0.145701,10e-4 0.218524,-7.9e-4 0.0029,-1.6e-4 0.0073,-0.003 0.0087,-5e-4 0.102132,0.1615 -0.152961,0.13709 -0.375896,0.24445 -0.02923,0.0141 -0.0712,0.0161 -0.102962,0.0209 -0.123989,0.0131 -0.249055,0.0149 -0.373752,0.0172 -0.08738,-0.002 -0.176217,0.009 -0.262927,-0.003 -0.05984,-0.0109 -0.120395,-0.0168 -0.181301,-0.0198 -0.05859,-0.002 -0.117237,-0.002 -0.175863,-0.002 -0.06657,-0.003 -0.134139,0.006 -0.199922,-0.005 -0.05552,-0.008 -0.106893,-0.0278 -0.161923,-0.0379 -0.05844,-0.006 -0.11589,-0.01 -0.17358,-0.0202 -0.05797,-0.0106 -0.11708,-0.0136 -0.176066,-0.0153 -0.05907,-0.001 -0.118167,-0.001 -0.177251,-9.9e-4 -0.02248,3e-5 -0.03125,-9e-5 -0.05262,3.9e-4 -0.0056,1.3e-4 -0.01439,0.006 -0.01672,10e-4 -0.0082,-0.0159 -0.03717,-0.0385 -0.02142,-0.0489 0.121195,-0.0798 0.26294,-0.13124 0.394411,-0.19685 0.04921,-10e-4 0.09365,-0.0172 0.140842,-0.0272 0.05613,-0.004 0.109849,-0.017 0.164988,-0.0265 0.06611,-0.0129 0.131158,-0.009 0.197471,-0.002 0.09248,0.006 0.182554,0.0244 0.27281,0.0421 0.102301,0.0186 0.204293,0.0384 0.306868,0.056 0.107688,0.0172 0.21708,0.0216 0.326205,0.0241 0.106344,0.002 0.212726,10e-4 0.319085,10e-4 0.09029,-4.9e-4 0.180603,-4.6e-4 0.270904,-7.4e-4 0.07765,-0.002 0.155486,0.003 0.232737,-0.004 0.08973,-0.0112 0.18012,-0.0167 0.270612,-0.0197 0.09225,-0.003 0.184564,-0.002 0.27685,-0.002 0.137459,3.9e-4 0.274915,10e-4 0.412373,0.002 0.16922,0.002 0.338677,-0.004 0.50772,0.004 0.110387,0.007 0.220689,0.0148 0.331268,0.0188 0.01193,3e-4 0.02387,0.001 0.03578,9.2e-4 0.04338,-0.002 0.08622,-0.0107 0.129849,-0.0116 0.02071,-4.4e-4 0.12584,0.003 0.14163,0.003 0.193496,0.003 0.386288,0.018 0.579459,0.0272 0.140386,0.003 0.279879,0.01 0.419465,0.0228 0.08539,0.0143 0.169726,0.004 0.255285,-6e-4 0.214735,-0.0116 0.429672,-0.002 0.644398,0.004 0.227338,0.004 0.45435,0.009 0.681232,0.0225 0.105952,1.3e-4 0.211568,-0.007 0.317431,-0.01 0.137435,-0.005 0.274422,-0.002 0.411577,0.006 0.157114,0.0106 0.314619,0.0145 0.472125,0.0166 0.138488,0.002 0.276998,0.001 0.415486,4.3e-4 0.08523,-10e-4 0.17042,-7.1e-4 0.255629,-1.3e-4 0.169467,-0.002 0.338431,0.007 0.507573,0.0145 0.133907,0.007 0.267188,0.0121 0.400878,0.002 0.14438,-0.011 0.28837,-0.0265 0.43218,-0.0426 0.13623,-0.0121 0.27087,-0.0343 0.4071,-0.0465 0.0923,-0.0142 0.18492,-0.0244 0.2769,-0.04 0.0743,-0.007 0.14495,-0.0289 0.21882,-0.0381 0.0819,-0.007 0.16417,-0.008 0.24635,-0.009 0.0147,0.009 0.0335,-0.006 0.0488,-10e-4 0.0124,0.004 0.036,0.0401 0.0277,0.0454 -0.28473,0.18424 -0.25118,0.17361 -0.41516,0.21579 -0.0687,0.0203 -0.13986,0.0311 -0.20976,0.0468 -0.0712,0.0145 -0.14356,0.0281 -0.21235,0.0505 -0.0623,0.0186 -0.12726,0.0272 -0.19128,0.0395 -0.0726,0.0127 -0.14679,0.0157 -0.22055,0.0179 -0.07,0.007 -0.13783,-0.005 -0.2068,-0.0133 -0.0813,-0.019 -0.16513,-0.0254 -0.24735,-0.0395 -0.1045,-0.0147 -0.20681,-0.0393 -0.310342,-0.0585 -0.08277,-0.016 -0.167171,-0.0188 -0.251451,-0.0207 -0.0915,-10e-4 -0.182952,-1.7e-4 -0.274434,-4.9e-4 -0.1134,-0.01 -0.226979,-0.0175 -0.340782,-0.0223 -0.111776,-0.006 -0.223048,-0.0202 -0.334063,-0.0335 -0.09733,-0.012 -0.195272,-0.019 -0.29344,-0.0219 -0.09878,-0.002 -0.197556,-0.002 -0.296329,-10e-4 -0.0831,0.007 -0.16277,-0.0109 -0.24313,-0.0265 -0.01557,-0.002 -0.03114,-0.005 -0.0467,-0.007 0,0 0.357773,-0.22343 0.357773,-0.22343 l 0,0 c 0.0159,0.003 0.03192,0.005 0.04782,0.008 0.07862,0.0145 0.15717,0.024 0.237742,0.0199 0.09934,3.7e-4 0.198767,1.9e-4 0.298111,0.002 0.09789,0.005 0.195205,0.0147 0.292253,0.0269 0.111104,0.013 0.222544,0.0241 0.334432,0.0297 0.113153,0.007 0.226094,0.0168 0.339438,0.0204 0.09173,-6.1e-4 0.183378,-2.7e-4 0.275052,10e-4 0.0861,0.002 0.17192,0.008 0.25587,0.0269 0.10293,0.0208 0.20568,0.0431 0.3103,0.0564 0.0827,0.0112 0.16467,0.0246 0.24689,0.0378 0.0675,0.008 0.1348,0.0126 0.20299,0.008 0.0725,-0.003 0.14509,-0.008 0.2159,-0.0233 0.0635,-0.0125 0.12775,-0.0222 0.18892,-0.0426 0.0708,-0.0176 0.14178,-0.034 0.21365,-0.0476 0.0702,-0.0141 0.14064,-0.0286 0.20753,-0.0529 0.15945,-0.077 -0.21409,0.10305 -0.33829,0.18371 -0.0326,0.0212 0.0626,0.0305 0.006,0.03 -0.0101,-9e-5 -0.0193,-5e-5 -0.0289,-7e-5 -0.0811,10e-4 -0.16257,0.002 -0.24276,0.0144 -0.0724,0.013 -0.14403,0.029 -0.21734,0.0377 -0.0922,0.0146 -0.18516,0.025 -0.27784,0.0368 -0.13463,0.0126 -0.26823,0.0325 -0.40293,0.0448 -0.14536,0.0161 -0.29086,0.0324 -0.436841,0.0432 -0.133179,0.007 -0.265899,-0.004 -0.398977,-0.01 -0.170464,-0.008 -0.340906,-0.0141 -0.511661,-0.009 -0.08523,6.3e-4 -0.170487,10e-4 -0.25573,1.6e-4 -0.137357,-9.7e-4 -0.274725,-0.002 -0.41207,-0.003 -0.158122,-0.003 -0.316232,-0.007 -0.473973,-0.0175 -0.137278,-0.007 -0.274523,-0.006 -0.411906,-0.001 -0.105616,0.004 -0.211489,0.0115 -0.317173,0.004 -0.223652,-0.0171 -0.447697,-0.022 -0.672067,-0.0262 -0.217541,-0.005 -0.435468,-0.0116 -0.652606,0.006 -0.0875,0.007 -0.173618,0.01 -0.260622,-0.005 -0.13703,-0.0141 -0.274486,-0.0192 -0.412244,-0.0249 -0.193486,-0.0106 -0.386887,-0.0245 -0.580875,-0.0244 -0.104944,-2.9e-4 -0.208533,0.0111 -0.313174,0.01 -0.108808,-0.006 -0.217275,-0.0161 -0.32611,-0.0218 -0.168399,-0.006 -0.337023,-0.002 -0.505514,-0.003 -0.138985,2.5e-4 -0.277967,9.9e-4 -0.416953,10e-4 -0.09211,3.8e-4 -0.184256,6e-4 -0.276305,0.004 -0.09026,0.004 -0.180129,0.0118 -0.269924,0.021 -0.07832,0.004 -0.156744,0.002 -0.235144,0.002 -0.08985,-1.6e-4 -0.17969,8e-5 -0.269535,-1.2e-4 -0.106512,-1.5e-4 -0.213037,3.6e-4 -0.319518,-0.002 -0.110634,-0.004 -0.221294,-0.0104 -0.330167,-0.0293 -0.102872,-0.0181 -0.205506,-0.0371 -0.308105,-0.0563 -0.0897,-0.0175 -0.179937,-0.0314 -0.27161,-0.0375 -0.06419,-0.005 -0.12777,-8.6e-4 -0.190678,0.0122 -0.05457,0.0106 -0.109872,0.0168 -0.164124,0.0285 -0.04638,0.0118 -0.09433,0.0167 -0.139701,0.0311 0.122594,-0.0627 0.256006,-0.11099 0.367781,-0.18815 0.06759,-0.0467 -0.07552,-0.0428 -0.01916,-0.0417 0.0074,1.5e-4 0.01472,2.4e-4 0.02209,2.8e-4 0.0099,5e-5 0.01977,0 0.02965,-1e-5 0.05948,6e-5 0.118991,1e-5 0.178424,0.002 0.06031,0.003 0.120394,0.009 0.17958,0.0198 0.05807,0.009 0.117418,0.009 0.174859,0.0215 0.05289,0.0122 0.104373,0.0297 0.159136,0.0345 0.06551,0.003 0.131236,4.2e-4 0.196819,10e-4 0.05923,2.4e-4 0.118508,4.8e-4 0.17761,0.004 0.06095,0.005 0.121163,0.0133 0.181632,0.0213 0.08519,0.004 0.170695,8.5e-4 0.25597,0.001 0.124107,-0.002 0.249138,-0.004 0.371536,-0.0245 0.23532,-0.0499 0.09257,-0.0839 -0.261964,0.16096 -0.05422,0.0375 0.06397,0.0442 0.02652,0.0416 -0.07202,-0.002 -0.144078,-5.9e-4 -0.216111,-7.8e-4 -0.06344,3.6e-4 -0.126868,4.8e-4 -0.190305,4.6e-4 -0.05929,6e-5 -0.11858,2e-4 -0.17787,-9e-5 -0.05969,-4.9e-4 -0.119447,-10e-4 -0.178897,-0.006 -0.05905,-0.006 -0.117297,-0.0171 -0.176584,-0.0202 -0.05926,0 -0.118518,0 -0.177778,0 -0.05926,-10e-6 -0.11852,-3e-5 -0.177779,-10e-5 -0.05929,-7e-5 -0.118582,-2.3e-4 -0.177871,-2e-5 -0.0594,3.9e-4 -0.118924,8.5e-4 -0.178104,0.006 -0.0583,0.006 -0.115259,0.0173 -0.172942,0.0265 -0.152087,0.0266 -0.295378,0.17165 0.32234,-0.1799 0.0085,-0.005 -0.01745,-0.009 -0.02569,-0.0143 -0.0011,-7.2e-4 0.0022,0.002 0.0034,0.002 0.04951,0.0137 0.101796,0.009 0.152772,0.0146 0.059,0.006 0.117188,0.017 0.176396,0.0203 0.208532,-4.2e-4 0.227427,-0.045 -0.244234,0.22927 -0.05813,-0.005 -0.116553,-0.008 -0.174362,-0.0156 -0.08985,-0.01 -0.179726,-0.0133 -0.270262,-0.01 0,0 0.355821,-0.23082 0.355821,-0.23082 z m 20.565412,5.0966 c -0.0114,0.0461 -0.0188,0.093 -0.0242,0.13999 -0.004,0.0441 -0.006,0.0883 -0.006,0.13253 -1e-5,0.0234 2.7e-4,0.0468 4.2e-4,0.0702 1.2e-4,0.0187 1.4e-4,0.0373 1.5e-4,0.0559 -2.1e-4,0.0212 -1.1e-4,0.0424 -7e-5,0.0636 -2.4e-4,0.0206 0.004,0.0407 0.007,0.0611 10e-4,0.0327 0.006,0.0652 0.009,0.0978 0.003,0.0342 0.004,0.0685 0.004,0.10285 -4.9e-4,0.0274 0.004,0.0546 0.008,0.0818 0.003,0.027 0.002,0.0541 0.002,0.0812 -1.7e-4,0.0383 -2.9e-4,0.0766 -1e-4,0.11494 1e-5,0.0288 3.4e-4,0.0576 5.3e-4,0.0863 0.001,0.0201 -0.004,0.0398 -0.007,0.0596 -0.002,0.0187 -0.002,0.0375 -0.006,0.0562 -0.006,0.0215 -0.007,0.0433 -0.008,0.0652 -1.1e-4,0.0218 -4.4e-4,0.0436 -0.002,0.0653 -0.007,0.0819 -0.0112,0.16398 -0.0151,0.24601 -0.002,0.0646 -0.009,0.12906 -0.0123,0.19362 7e-5,0.0322 -0.004,0.0641 -0.009,0.096 -0.004,0.0366 -0.004,0.0733 -0.004,0.11002 -3.4e-4,0.0373 3e-5,0.0747 4.5e-4,0.11197 -9.8e-4,0.0263 0.001,0.0522 0.004,0.0783 0.003,0.0332 0.004,0.0665 0.008,0.0996 0.003,0.0293 0.007,0.0587 0.008,0.0882 0.002,0.0202 0.007,0.0401 0.009,0.0603 0.002,0.0234 0.002,0.0469 0.002,0.0703 0.003,0.0406 0.006,0.0813 0.009,0.12183 0.006,0.0471 0.009,0.0943 0.0101,0.14165 0.001,0.0353 0.001,0.0705 0.002,0.1058 -2.3e-4,0.0279 8.8e-4,0.0558 -0.001,0.0837 -0.002,0.0207 -0.004,0.0413 -0.007,0.062 0,0 -0.13764,0.0616 -0.13764,0.0616 l 0,0 c 10e-4,-0.0207 0.003,-0.0414 0.006,-0.062 0.003,-0.0275 9.1e-4,-0.0551 10e-4,-0.0827 2.7e-4,-0.0354 3.2e-4,-0.0707 -4.3e-4,-0.10608 -0.001,-0.0471 -0.004,-0.0942 -0.0101,-0.14108 -0.004,-0.0407 -0.006,-0.0815 -0.0112,-0.12214 -2.4e-4,-0.0229 -3.7e-4,-0.0459 -0.002,-0.0688 -0.002,-0.0206 -0.006,-0.0408 -0.009,-0.0612 -8.9e-4,-0.0293 -0.002,-0.0586 -0.007,-0.0877 -0.004,-0.033 -0.006,-0.0661 -0.009,-0.0992 -0.003,-0.0265 -0.007,-0.0529 -0.006,-0.0797 3.4e-4,-0.0375 6.2e-4,-0.0751 7.4e-4,-0.11263 8e-5,-0.0369 -2.3e-4,-0.0739 0.003,-0.11065 0.003,-0.0321 0.0101,-0.0638 0.0101,-0.0962 0.006,-0.065 0.013,-0.1299 0.016,-0.19507 0.004,-0.0813 0.009,-0.16267 0.0101,-0.24414 10e-4,-0.0215 4.2e-4,-0.0431 10e-4,-0.0646 8.1e-4,-0.0223 0.001,-0.0448 0.007,-0.0667 0.004,-0.0184 0.004,-0.0368 0.006,-0.0555 0.002,-0.0195 0.008,-0.0386 0.008,-0.0582 2e-4,-0.029 5.6e-4,-0.0579 6.2e-4,-0.0869 2.3e-4,-0.0382 2.3e-4,-0.0765 -2.2e-4,-0.11469 -3e-4,-0.0266 -5.2e-4,-0.0532 -0.003,-0.0797 -0.002,-0.0277 -0.008,-0.0553 -0.008,-0.0832 -3.3e-4,-0.0341 -8.2e-4,-0.0681 -0.003,-0.10212 -0.003,-0.0324 -0.008,-0.0647 -0.0101,-0.0972 -0.002,-0.0208 -0.008,-0.0413 -0.008,-0.0621 5e-5,-0.0212 1.5e-4,-0.0423 -7e-5,-0.0635 -2e-5,-0.0187 -4e-5,-0.0373 -5e-5,-0.056 1e-5,-0.0236 7e-5,-0.0473 6.2e-4,-0.0709 0.001,-0.0448 0.003,-0.0896 0.007,-0.13432 0.006,-0.047 0.0124,-0.0937 0.0206,-0.14026 0,0 0.13983,-0.0602 0.13983,-0.0602 z m -0.0411,-5.1065 c -0.006,0.0379 -0.007,0.076 -0.009,0.11415 -7.7e-4,0.023 -8.5e-4,0.046 -8.7e-4,0.069 3e-5,0.0187 7e-5,0.0374 8e-5,0.056 2e-5,0.0186 2e-5,0.0373 2e-5,0.0559 0,0.0187 0,0.0374 0,0.0561 0,0.0187 0,0.0374 0,0.0561 0,0.0187 0,0.0374 0,0.0561 0,0.0187 0,0.0374 0,0.0561 0,0.0187 0,0.0374 0,0.0561 5e-5,0.0215 -2e-4,0.043 -2.3e-4,0.0645 -1e-4,0.0259 -1.1e-4,0.0518 -1e-5,0.0777 6.6e-4,0.0209 -9.3e-4,0.0419 0.001,0.0627 0.003,0.0188 0.007,0.0376 0.008,0.0566 0.001,0.0188 0.001,0.0376 0.001,0.0564 7e-5,0.0205 -8e-5,0.0411 -2.6e-4,0.0616 -0.001,0.0249 4.3e-4,0.0494 0.004,0.074 0.003,0.0201 0.006,0.0404 0.006,0.0607 6e-4,0.0225 2.9e-4,0.0449 3.2e-4,0.0674 -1.6e-4,0.0237 -1e-5,0.0473 5e-5,0.071 7e-5,0.0194 9e-5,0.0388 9e-5,0.0582 8e-5,0.0201 -1.1e-4,0.0402 -1.2e-4,0.0603 3e-5,0.0203 8e-5,0.0406 1.1e-4,0.0609 1e-5,0.0188 2e-5,0.0376 2e-5,0.0565 0,0.0187 0,0.0374 0,0.0561 -1.2e-4,0.021 -1.3e-4,0.042 -1e-4,0.0629 6e-5,0.0195 8e-5,0.0391 9e-5,0.0586 6e-5,0.0206 -5e-5,0.0411 -2.1e-4,0.0616 -2e-5,0.0273 -2.4e-4,0.0546 -2e-4,0.0818 1e-4,0.0236 2.7e-4,0.0473 3.5e-4,0.0709 7e-5,0.0258 -3e-4,0.0517 -5.9e-4,0.0775 -2.7e-4,0.0408 -3.3e-4,0.0816 -2.8e-4,0.12242 -3e-5,0.0363 3.3e-4,0.0726 4e-4,0.10896 1.1e-4,0.0289 2e-4,0.0578 1.4e-4,0.0867 2.7e-4,0.0336 1.1e-4,0.0671 -0.003,0.10058 -0.004,0.0392 -0.006,0.0786 -0.007,0.11795 -0.002,0.0361 -0.007,0.0721 -0.009,0.10825 -1.9e-4,0.0252 -0.002,0.05 -0.006,0.0749 -0.004,0.0263 -0.006,0.053 -0.006,0.0796 -0.002,0.0318 -0.007,0.0635 -0.009,0.0953 -0.002,0.0312 -0.002,0.0625 -0.002,0.0937 3e-5,0.0305 -1.1e-4,0.061 8e-5,0.0915 1.9e-4,0.0228 3.4e-4,0.0456 4.1e-4,0.0684 -1.4e-4,0.0251 -2.4e-4,0.0502 -3.4e-4,0.0753 -2.6e-4,0.0329 -2.2e-4,0.0659 -2.1e-4,0.0988 -8e-5,0.0307 2.2e-4,0.0613 2.2e-4,0.0919 1.1e-4,0.0283 1e-5,0.0567 -1.3e-4,0.085 -1.5e-4,0.0353 -2e-4,0.0707 -2.3e-4,0.10599 3e-5,0.0333 1.2e-4,0.0666 2.9e-4,0.1 7e-5,0.0272 8e-5,0.0543 2e-4,0.0815 1.1e-4,0.021 1.9e-4,0.0421 2.3e-4,0.0631 3e-5,0.0188 3e-5,0.0375 3e-5,0.0563 0,0.0187 0,0.0373 -1e-5,0.056 0,0.0187 0,0.0374 0,0.0561 -5.7e-4,0.0236 -6e-5,0.047 0.002,0.0706 0.004,0.0499 0.0112,0.0998 0.0161,0.14971 0.006,0.0672 0.0124,0.13434 0.0167,0.20164 0.008,0.0572 0.0134,0.11492 0.024,0.17182 0,0 -0.13564,0.064 -0.13564,0.064 l 0,0 c -0.009,-0.0578 -0.0134,-0.11619 -0.0224,-0.17401 -0.004,-0.067 -0.0112,-0.13395 -0.0168,-0.20091 -0.006,-0.0496 -0.0125,-0.0991 -0.0186,-0.14863 -0.003,-0.0237 -0.004,-0.0473 -0.003,-0.0712 0,-0.0187 0,-0.0374 0,-0.0561 0,-0.0187 -1e-5,-0.0374 -1e-5,-0.056 0,-0.0188 0,-0.0375 3e-5,-0.0563 3e-5,-0.0211 1.1e-4,-0.0422 2.2e-4,-0.0633 1.3e-4,-0.0272 1.4e-4,-0.0545 2.1e-4,-0.0817 1.6e-4,-0.0334 2.5e-4,-0.0668 2.9e-4,-0.10023 -4e-5,-0.0353 -7e-5,-0.0705 -2.4e-4,-0.10577 -1.3e-4,-0.0283 -2.3e-4,-0.0566 -1.2e-4,-0.0849 0,-0.0307 3e-4,-0.0614 2.1e-4,-0.0921 1e-5,-0.0329 6e-5,-0.0657 -1.9e-4,-0.0986 -1e-4,-0.025 -2.1e-4,-0.05 -3.6e-4,-0.075 7e-5,-0.0229 2e-4,-0.0458 3.5e-4,-0.0687 1.4e-4,-0.0305 -10e-5,-0.0611 4e-5,-0.0916 7e-5,-0.0315 2.5e-4,-0.0629 0.002,-0.0944 0.002,-0.0317 0.006,-0.0633 0.009,-0.0948 3.7e-4,-0.027 7.9e-4,-0.0541 0.004,-0.0809 0.003,-0.0247 0.008,-0.0491 0.008,-0.0742 0.002,-0.0361 0.006,-0.0721 0.0101,-0.10813 9.7e-4,-0.0396 0.002,-0.0792 0.007,-0.11859 0.003,-0.0331 0.003,-0.0661 0.003,-0.0992 -4e-5,-0.029 4e-5,-0.0579 1.5e-4,-0.0869 8e-5,-0.0364 4.4e-4,-0.0729 3.9e-4,-0.10932 6e-5,-0.0407 0,-0.0814 -2.7e-4,-0.12217 -3e-4,-0.0257 -6.6e-4,-0.0513 -5.9e-4,-0.077 9e-5,-0.0237 2.6e-4,-0.0475 3.6e-4,-0.0712 2e-5,-0.0272 -1.8e-4,-0.0544 -2.2e-4,-0.0817 -1.5e-4,-0.0205 -2.5e-4,-0.041 -2e-4,-0.0614 1e-5,-0.0196 4e-5,-0.0391 8e-5,-0.0587 5e-5,-0.0209 4e-5,-0.0419 -9e-5,-0.0628 0,-0.0187 0,-0.0374 0,-0.0561 0,-0.0188 0,-0.0377 2e-5,-0.0565 3e-5,-0.0203 8e-5,-0.0406 1.1e-4,-0.0609 0,-0.0201 -2e-4,-0.0401 -1.3e-4,-0.0602 10e-6,-0.0194 4e-5,-0.0389 1.1e-4,-0.0583 1e-4,-0.0237 3e-4,-0.0474 1.7e-4,-0.0711 6e-5,-0.0223 -3e-5,-0.0445 -5e-4,-0.0668 -5.7e-4,-0.0199 -0.001,-0.0399 -0.004,-0.0596 -0.003,-0.0252 -0.007,-0.0502 -0.006,-0.0757 -1.5e-4,-0.0204 -2.1e-4,-0.0409 -1.6e-4,-0.0613 -3e-5,-0.0185 -10e-6,-0.0371 -10e-4,-0.0556 -0.001,-0.0189 -0.003,-0.0376 -0.008,-0.0561 -0.003,-0.0213 -8e-4,-0.0429 -10e-4,-0.0643 9e-5,-0.0259 8e-5,-0.0518 -1e-5,-0.0777 -3e-5,-0.0214 -2.9e-4,-0.0429 -2.5e-4,-0.0643 0,-0.0187 0,-0.0374 0,-0.0561 0,-0.0187 0,-0.0374 0,-0.0561 0,-0.0187 0,-0.0374 0,-0.0561 0,-0.0187 0,-0.0374 0,-0.0561 0,-0.0187 0,-0.0374 0,-0.0561 0,-0.0186 0,-0.0373 -2e-5,-0.0559 -2e-5,-0.0187 -5e-5,-0.0374 -1e-5,-0.0561 1.1e-4,-0.0233 4.2e-4,-0.0466 0.001,-0.07 0.002,-0.0382 0.004,-0.0764 0.008,-0.11454 0,0 0.13887,-0.0616 0.13887,-0.0616 z m -6.24819,0.0479 c 0.0319,0.006 0.0633,0.0144 0.0953,0.02 0.0239,0.002 0.0469,0.008 0.0706,0.0111 0.0206,0.002 0.0414,0.003 0.0622,0.003 0.0139,5e-5 0.007,4e-5 0.0208,5e-5 0,0 -0.12579,0.0815 -0.12579,0.0815 l 0,0 c -0.014,-9e-5 -0.007,-2e-5 -0.0209,-1.9e-4 -0.0213,-4.6e-4 -0.0426,-0.001 -0.0635,-0.005 -0.0235,-0.004 -0.0468,-0.009 -0.0704,-0.0118 -0.0322,-0.006 -0.0638,-0.0147 -0.0962,-0.02 0,0 0.12796,-0.0788 0.12796,-0.0788 z m 0.45461,0.003 -0.56297,-0.0141 0.74074,-0.003 c 0.40741,-10e-4 0.72076,0.001 0.69631,0.006 -0.10472,0.0209 -0.34583,0.0238 -0.87408,0.0106 z m 3.87963,4.16847 0,-4.04064 0.83805,0 0.83806,0 0,3.29237 0,3.29237 1.75993,0 1.75992,0 0,0.74827 0,0.74827 -2.59798,0 -2.59798,0 0,-4.04064 z m -10.224322,0 0,-4.04064 1.155852,0 1.15584,0 0.68628,1.72665 c 0.37745,0.94966 0.73307,1.89311 0.79026,2.09656 0.0572,0.20345 0.16303,0.40249 0.23519,0.44231 0.11229,0.062 0.69553,-1.27527 1.5667,-3.59208 l 0.22509,-0.59862 1.19889,-0.044 1.19888,-0.044 0,4.0472 0,4.0472 -0.83806,0 -0.83806,0 0,-3.023 c 0,-1.67615 -0.0636,-2.95966 -0.14277,-2.88083 -0.0785,0.0782 -0.51221,1.10167 -0.96376,2.27439 l -0.82101,2.13222 -0.53083,3.4e-4 -0.53085,3.4e-4 -0.78905,-2.13256 c -0.43399,-1.1729 -0.85507,-2.19653 -0.93576,-2.27473 -0.0842,-0.0817 -0.14671,1.14417 -0.14671,2.88083 l 0,3.023 -0.83806,0 -0.838062,0 0,-4.04064 z m -8.061606,3.25496 c 1.104746,-1.77335 2.027585,-3.29445 2.027585,-3.34204 0,-0.0279 -0.527977,-0.90254 -1.173281,-1.94375 -0.645305,-1.0412 -1.173282,-1.91936 -1.173282,-1.95146 0,-0.0321 0.395983,-0.058 0.879962,-0.0575 l 0.87996,8.9e-4 0.754253,1.2702 c 0.414839,0.69861 0.825769,1.24936 0.913177,1.22387 0.0874,-0.0255 0.496761,-0.59747 0.909671,-1.27109 l 0.750746,-1.22475 0.899046,0 0.899039,0 -0.853499,1.38429 c -0.469426,0.76136 -1.009058,1.65861 -1.199182,1.99388 l -0.34568,0.60958 1.192293,1.94669 c 0.655764,1.07068 1.192292,1.99172 1.192292,2.04676 0,0.055 -0.372325,0.10008 -0.827381,0.10008 l -0.827381,0 -0.86951,-1.3843 c -0.478231,-0.76136 -0.890122,-1.40543 -0.915313,-1.43126 -0.02519,-0.0258 -0.435829,0.59709 -0.912529,1.38429 l -0.866726,1.43127 -0.911859,0 -0.911858,0 0.489457,-0.78568 z"
         style="fill:#b827b8;fill-opacity:1;stroke:#b827b8;stroke-width:2.11660099;stroke-miterlimit:4;stroke-opacity:1;stroke-dasharray:none;stroke-dashoffset:0"
         id="path3949" />
    </g>
    <text
       xml:space="preserve"
       style="font-size:8px;font-style:normal;font-weight:normal;text-align:center;line-height:125%;letter-spacing:0px;word-spacing:0px;text-anchor:middle;fill:#ffffff;fill-opacity:1;stroke:none;font-family:Sans"
       x="100.69586"
       y="474.85312"
       id="text3951"
       sodipodi:linespacing="125%"><tspan
         sodipodi:role="line"
         id="tspan3953"
         x="100.69586"
         y="474.85312">Template</tspan></text>
    <text
       xml:space="preserve"
       style="font-size:8px;font-style:normal;font-weight:normal;text-align:center;line-height:125%;letter-spacing:0px;word-spacing:0px;text-anchor:middle;fill:#000000;fill-opacity:1;stroke:none;font-family:Sans"
       x="351.49948"
       y="505.30118"
       id="text4017"
       sodipodi:linespacing="125%"><tspan
         sodipodi:role="line"
         id="tspan4019"
         x="351.49948"
         y="505.30118">Template</tspan></text>
    <rect
       style="fill:none;stroke:#000000;stroke-width:2;stroke-miterlimit:4;stroke-opacity:1;stroke-dasharray:none;stroke-dashoffset:0"
       id="rect4023"
       width="52.405376"
       height="58.796276"
       x="343.83041"
       y="483.57211" />
    <text
       xml:space="preserve"
       style="font-size:10px;font-style:normal;font-weight:normal;text-align:center;line-height:125%;letter-spacing:0px;word-spacing:0px;text-anchor:middle;fill:#000000;fill-opacity:1;stroke:none;font-family:Sans"
       x="360.44672"
       y="534.69934"
       id="text4025"
       sodipodi:linespacing="125%"><tspan
         sodipodi:role="line"
         id="tspan4027"
         x="360.44672"
         y="534.69934">&lt; .&gt;</tspan></text>
    <rect
       style="fill:#000000;fill-opacity:0.20547946;fill-rule:nonzero;stroke:#000000;stroke-width:0;stroke-linecap:round;stroke-linejoin:round;stroke-miterlimit:4;stroke-opacity:0.19607843000000000;stroke-dasharray:none;stroke-dashoffset:0;opacity:1"
       id="rect5489"
       width="46.527706"
       height="13.030788"
       x="328.7345"
       y="496.27051" />
  </g>
</svg>
